<?xml version="1.0" encoding="UTF-8" standalone="no"?>
<svg
   viewBox="0 0 648.04962 2732.9509"  
   xmlns:inkscape="http://www.inkscape.org/namespaces/inkscape"
   xmlns:sodipodi="http://sodipodi.sourceforge.net/DTD/sodipodi-0.dtd"
   xmlns="http://www.w3.org/2000/svg"
   xmlns:svg="http://www.w3.org/2000/svg">
  <defs
     id="defs8" />
  <sodipodi:namedview
     id="namedview6"
     pagecolor="#ffffff"
     bordercolor="#666666"
     borderopacity="1.0"
     inkscape:pageshadow="2"
     inkscape:pageopacity="0.0"
     inkscape:pagecheckerboard="0" />
  <path
     class="red" 
     stroke-width="20" fill="green" fill-rule="evenodd"
        stroke-linecap="round"
     d="m 435.53162,1.7289764 c 0.127,-0.81874001 -0.435,-1.58488001 -1.253,-1.71121801 -0.819,-0.126341 -1.585,0.434958 -1.712,1.25368801 z m 48.081,101.2391436 0.793,-1.273 z m 0,347.606 1.263,0.809 0.026,-0.04 0.023,-0.042 z m -189.391,90.578 0.059,-1.499 -0.007,-10e-4 h -0.007 z m -288.177675,222.6 1.49034,0.17 z m 234.473675,346.65498 0.089,-1.49 z m 392.843,477.44 -1.475,-0.27 -0.003,0.02 -0.002,0.01 z m -253.371,242.74 -0.488,-1.42 z m -139.472,492.57 -0.935,1.17 0.051,0.04 0.055,0.04 z m 138.141,60.52 -0.441,1.43 z m 179.773,200.27 -1.495,0.11 v 0.01 z m -7.074,146.88 c -0.344,0.75 -0.013,1.64 0.741,1.99 0.753,0.34 1.643,0.01 1.988,-0.74 z M 432.56662,1.2714464 c -0.273,1.76904 -0.494,3.80143 -0.636,6.05675 l 2.994,0.18801 c 0.137,-2.17406 0.349,-4.11602 0.607,-5.78723 z m -0.598,18.1582696 c 0.238,3.7475 0.694,7.7797 1.434,12.0081 l 2.955,-0.5176 c -0.72,-4.1155 -1.163,-8.0383 -1.395,-11.6809 z m 4.16,23.7795 c 1.083,3.7388 2.405,7.559 4.004,11.4098 l 2.77,-1.1504 c -1.554,-3.7425 -2.839,-7.457 -3.892,-11.0941 z m 9.273,22.2946 c 1.91,3.426 4.067,6.8381 6.498,10.2007 l 2.432,-1.7577 c -2.361,-3.2644 -4.455,-6.5772 -6.31,-9.904 z m 14.153,19.5771 c 2.646,2.8806 5.528,5.6944 8.666,8.4166 l 1.966,-2.2661 c -3.051,-2.6473 -5.853,-5.3821 -8.423,-8.18 z m 18.214,15.835204 c 1.629,1.132 3.311,2.242 5.051,3.325 l 1.586,-2.546 c -1.696,-1.057 -3.337,-2.138004 -4.924,-3.241904 z m 5.051,3.325 c 1.83,1.141 3.637,2.382 5.417,3.721 l 1.804,-2.397 c -1.849,-1.391 -3.728,-2.682 -5.635,-3.87 z m 15.28,12.432 c 2.973,3.042 5.842,6.385 8.589,10.015 l 2.392,-1.81 c -2.819,-3.725 -5.769,-7.164 -8.835,-10.301 z m 15.99,20.994 c 2.217,3.686 4.324,7.589 6.31,11.699 l 2.701,-1.305 c -2.024,-4.189 -4.174,-8.172 -6.44,-11.94 z m 11.587,23.861 c 1.567,4.035 3.026,8.23 4.368,12.579 l 2.867,-0.885 c -1.363,-4.414 -2.845,-8.677 -4.438,-12.78 z m 7.878,25.418 c 1.012,4.22 1.92,8.562 2.717,13.021 l 2.953,-0.529 c -0.807,-4.515 -1.727,-8.914 -2.753,-13.192 z m 4.705,26.205 c 0.536,4.334 0.971,8.765 1.301,13.288 l 2.992,-0.218 c -0.333,-4.572 -0.774,-9.053 -1.316,-13.438 z m 1.955,26.616 c 0.112,4.367 0.129,8.81 0.046,13.326 l 2.999,0.055 c 0.084,-4.56 0.067,-9.047 -0.046,-13.458 z m -0.482,26.651 c -0.264,4.373 -0.62,8.807 -1.071,13.301 l 2.985,0.3 c 0.455,-4.533 0.814,-9.007 1.081,-13.42 z m -2.659,26.555 c -0.605,4.347 -1.297,8.745 -2.08,13.191 l 2.955,0.521 c 0.789,-4.482 1.487,-8.915 2.096,-13.299 z m -4.628,26.305 c -0.913,4.301 -1.91,8.643 -2.994,13.025 l 2.912,0.721 c 1.092,-4.414 2.097,-8.789 3.017,-13.123 z m -6.416,25.953 c -1.194,4.237 -2.468,8.508 -3.826,12.811 l 2.861,0.902 c 1.367,-4.332 2.651,-8.632 3.853,-12.899 z m -8.029,25.471 c -1.447,4.152 -2.971,8.332 -4.574,12.539 l 2.803,1.068 c 1.613,-4.233 3.147,-8.44 4.604,-12.62 z m -9.504,24.954 c -1.684,4.075 -3.441,8.172 -5.274,12.291 l 2.741,1.22 c 1.843,-4.144 3.611,-8.266 5.305,-12.365 z m -10.88,24.46 c -1.896,3.978 -3.862,7.976 -5.9,11.991 l 2.675,1.358 c 2.049,-4.038 4.027,-8.057 5.933,-12.059 z m -12.083,23.812 c -1.06,1.97 -2.138,3.942 -3.233,5.919 l 2.624,1.454 c 1.101,-1.987 2.184,-3.971 3.25,-5.95 z m -3.184,5.837 c -1.077,1.681 -2.167,3.395 -3.319,5.193 l 2.526,1.619 c 1.143,-1.784 2.259,-3.539 3.319,-5.194 z m -10.104,15.479 c -2.225,3.242 -4.618,6.577 -7.223,9.954 l 2.376,1.833 c 2.645,-3.43 5.071,-6.811 7.321,-10.089 z m -15.027,19.393 c -2.631,2.959 -5.451,5.915 -8.489,8.835 l 2.079,2.163 c 3.099,-2.979 5.973,-5.992 8.652,-9.005 z m -17.661,16.95 c -3.073,2.497 -6.337,4.943 -9.813,7.314 l 1.69,2.478 c 3.548,-2.42 6.879,-4.916 10.015,-7.465 z m -20.195,13.783 c -3.438,1.953 -7.057,3.831 -10.871,5.618 l 1.273,2.717 c 3.885,-1.821 7.573,-3.735 11.079,-5.726 z m -22.161,10.408 c -3.7,1.415 -7.563,2.748 -11.596,3.987 l 0.881,2.867 c 4.097,-1.258 8.022,-2.612 11.786,-4.051 z m -23.432,7.223 c -3.859,0.932 -7.858,1.782 -12.005,2.544 l 0.541,2.95 c 4.201,-0.771 8.254,-1.633 12.168,-2.577 z m -24.182,4.46 c -3.946,0.522 -8.014,0.968 -12.21,1.333 l 0.26,2.988 c 4.239,-0.368 8.352,-0.818 12.344,-1.347 z m -24.467,2.143 c -3.992,0.184 -8.091,0.298 -12.299,0.338 l 0.029,2.999 c 4.243,-0.04 8.378,-0.155 12.408,-0.34 z m -24.612,0.246 c -2.052,-0.049 -4.128,-0.114 -6.228,-0.197 l -0.118,2.997 c 2.116,0.084 4.207,0.15 6.274,0.199 z m -6.242,-0.198 c -2.176,-0.065 -4.408,-0.103 -6.693,-0.113 l -0.013,3 c 2.26,0.01 4.467,0.048 6.616,0.112 z m -20.15,0.144 c -4.343,0.18 -8.828,0.456 -13.432,0.838 l 0.247,2.989 c 4.564,-0.377 9.007,-0.651 13.309,-0.83 z m -26.858,2.214 c -4.353,0.531 -8.788,1.154 -13.29,1.875 l 0.474,2.962 c 4.465,-0.715 8.864,-1.333 13.179,-1.86 z m -26.526,4.247 c -4.341,0.861 -8.728,1.814 -13.149,2.865 l 0.693,2.919 c 4.384,-1.042 8.735,-1.987 13.04,-2.842 z m -26.186,6.224 c -4.284,1.192 -8.588,2.477 -12.9,3.86 l 0.916,2.857 c 4.274,-1.371 8.54,-2.645 12.787,-3.826 z m -25.627,8.226 c -4.184,1.531 -8.366,3.158 -12.535,4.886 l 1.148,2.772 c 4.13,-1.712 8.272,-3.324 12.418,-4.841 z m -24.854,10.308 c -4.047,1.889 -8.072,3.878 -12.066,5.971 l 1.392,2.657 c 3.953,-2.071 7.937,-4.04 11.943,-5.91 z m -23.842,12.504 c -3.857,2.264 -7.674,4.631 -11.443,7.107 l 1.647,2.507 c 3.726,-2.447 7.5,-4.788 11.314,-7.027 z m -22.507095,14.795 c -3.6042,2.649 -7.1528,5.406 -10.6371,8.274 l 1.9065,2.316 c 3.441,-2.832 6.9462,-5.555 10.5072,-8.173 z m -20.7971,17.131 c -3.2837,3.032 -6.4972,6.174 -9.6323,9.43 l 2.1611,2.081 c 3.0936,-3.213 6.2651,-6.314 9.5064,-9.307 z m -18.688,19.418 c -2.896,3.394 -5.7097,6.9 -8.4337,10.519 l 2.397,1.804 c 2.6866,-3.57 5.4621,-7.027 8.319,-10.376 z m -16.206,21.535 c -2.453,3.714 -4.8151,7.538 -7.0795,11.472 l 2.6002,1.497 c 2.2335,-3.881 4.5633,-7.652 6.9827,-11.316 z m -13.4444,23.355 c -1.9773,3.976 -3.859,8.057 -5.639,12.244 l 2.7609,1.174 c 1.7567,-4.133 3.6135,-8.159 5.5643,-12.082 z m -10.5513,24.801 c -1.4968,4.176 -2.8967,8.45 -4.1944,12.824 l 2.8761,0.854 c 1.282,-4.321 2.6645,-8.542 4.1424,-12.666 z m -7.687,25.874 c -1.02654,4.287 -1.95891,8.664 -2.79295,13.131 l 2.94905,0.551 c 0.8249,-4.419 1.7468,-8.746 2.7614,-12.983 z m -4.93868,26.391 c -0.30728,2.233 -0.59092,4.487 -0.85044,6.763 l 2.98068,0.34 c 0.25692,-2.253 0.53766,-4.484 0.84175,-6.694 z m -0.85044,6.763 c -0.24582,2.156 -0.48158,4.3 -0.70731,6.434 l 2.98335,0.316 c 0.22487,-2.126 0.45974,-4.263 0.70464,-6.41 z m -1.94152,19.11 c -0.38302,4.313 -0.72358,8.58 -1.0219,12.802 l 2.99253,0.211 c 0.29703,-4.203 0.63615,-8.453 1.01761,-12.748 z m -1.79971003,25.512 c -0.222352,4.314 -0.398856,8.579 -0.529763,12.794 l 2.99855303,0.094 c 0.13026,-4.195 0.30591,-8.44 0.52723,-12.734 z m -0.788879,25.606 c -0.039358,4.3 -0.029232,8.546 0.030094,12.738 l 2.99969503,-0.042 c -0.05898,-4.169 -0.06906,-8.392 -0.02991,-12.668 z m 0.370494,25.546 c 0.170169,4.329 0.395295,8.598 0.67503503,12.808 l 2.9934,-0.199 c -0.27791,-4.182 -0.50162,-8.425 -0.67075,-12.727 z m 1.70456503,25.544 c 0.40995,4.286 0.87953,8.509 1.40836,12.667 l 2.97603,-0.378 c -0.52481,-4.127 -0.99096,-8.318 -1.39801,-12.575 z m 3.24371,25.393 c 0.69236,4.28 1.45125,8.488 2.27621,12.624 l 2.94205,-0.587 c -0.8177,-4.099 -1.57009,-8.271 -2.25676,-12.516 z m 5.02466,25.134 c 1.012,4.205 2.0969,8.332 3.2541,12.379 l 2.8845,-0.824 c -1.1454,-4.006 -2.2196,-8.092 -3.2219,-12.257 z m 7.0487,24.604 c 1.3784,4.104 2.8369,8.122 4.375,12.053 l 2.7937,-1.094 c -1.5198,-3.884 -2.9617,-7.855 -4.3249,-11.914 z m 9.3654,23.892 c 1.7871,3.945 3.6613,7.794 5.6218,11.549 l 2.6594,-1.388 c -1.9342,-3.705 -3.7841,-7.504 -5.5486,-11.399 z m 11.8961,22.75398 c 2.2208,3.71 4.5341,7.31 6.9389,10.81 l 2.4731,-1.7 c -2.3694,-3.45 -4.6494,-7 -6.839,-10.65 z m 14.5442,21.17 c 2.6586,3.38 5.4126,6.66 8.261,9.84 l 2.2331,-2.01 c -2.8044,-3.12 -5.5162,-6.35 -8.1345,-9.69 z m 17.1539,19.11 c 3.0682,3 6.2316,5.89 9.4889,8.67 l 1.9484,-2.28 c -3.2071,-2.74 -6.3214,-5.59 -9.342,-8.53 z m 19.5275,16.69 c 3.4202,2.55 6.9319,5 10.533895,7.35 l 1.638,-2.51 c -3.548995,-2.32 -7.008395,-4.73 -10.376895,-7.25 z m 21.504895,14.03 c 3.698,2.09 7.481,4.1 11.348,6 l 1.325,-2.69 c -3.816,-1.88 -7.547,-3.85 -11.192,-5.92 z m 23.015,11.34 c 3.901,1.66 7.879,3.23 11.934,4.71 l 1.029,-2.82 c -4.008,-1.46 -7.937,-3.01 -11.789,-4.65 z m 24.087,8.81 c 4.04,1.26 8.15,2.43 12.33,3.52 l 0.759,-2.9 c -4.137,-1.08 -8.204,-2.24 -12.199,-3.48 z m 24.803,6.51 c 4.134,0.89 8.331,1.72 12.59,2.47 l 0.521,-2.96 c -4.222,-0.74 -8.38,-1.56 -12.474,-2.45 z m 25.259,4.46 c 4.172,0.58 8.401,1.1 12.684,1.55 l 0.314,-2.99 c -4.251,-0.44 -8.446,-0.95 -12.585,-1.53 z m 25.419,2.68 c 2.133,0.16 4.28,0.3 6.439,0.43 l 0.177,-2.99 c -2.145,-0.13 -4.277,-0.27 -6.396,-0.43 z m 6.439,0.43 c 2.079,0.12 4.177,0.25 6.292,0.38 l 0.181,-3 c -2.117,-0.13 -4.216,-0.25 -6.296,-0.37 z m 19.084,1.18 c 4.194,0.28 8.447,0.57 12.753,0.89 l 0.22,-2.99 c -4.315,-0.32 -8.575,-0.61 -12.776,-0.89 z m 25.447,1.88 c 4.202,0.35 8.447,0.72 12.728,1.12 l 0.28,-2.99 c -4.293,-0.4 -8.549,-0.77 -12.761,-1.12 z m 25.473,2.39 c 4.189,0.45 8.406,0.92 12.648,1.43 l 0.359,-2.98 c -4.257,-0.51 -8.488,-0.99 -12.69,-1.43 z m 25.305,3.05 c 4.201,0.57 8.421,1.18 12.655,1.83 l 0.454,-2.97 c -4.251,-0.65 -8.488,-1.26 -12.705,-1.83 z m 25.229,3.87 c 4.175,0.72 8.359,1.48 12.548,2.29 l 0.567,-2.95 c -4.209,-0.81 -8.413,-1.57 -12.607,-2.3 z m 25.06,4.83 c 4.142,0.89 8.284,1.83 12.422,2.82 l 0.697,-2.92 c -4.161,-1 -8.325,-1.94 -12.489,-2.83 z m 24.785,5.93 c 4.103,1.09 8.198,2.23 12.281,3.43 l 0.845,-2.88 c -4.108,-1.21 -8.229,-2.36 -12.357,-3.45 z m 24.448,7.19 c 4.037,1.31 8.057,2.68 12.056,4.12 l 1.013,-2.83 c -4.029,-1.44 -8.078,-2.82 -12.142,-4.14 z m 23.975,8.6 c 3.945,1.56 7.866,3.19 11.757,4.88 l 1.198,-2.75 c -3.924,-1.71 -7.876,-3.34 -11.852,-4.92 z m 23.334,10.17 c 3.824,1.84 7.615,3.74 11.368,5.72 l 1.4,-2.65 c -3.789,-2 -7.614,-3.92 -11.471,-5.77 z m 22.495,11.88 c 3.665,2.13 7.288,4.33 10.867,6.61 l 1.614,-2.52 c -3.615,-2.31 -7.275,-4.54 -10.975,-6.69 z m 21.428,13.69 c 3.457,2.43 6.867,4.94 10.224,7.54 l 1.836,-2.37 c -3.395,-2.63 -6.841,-5.17 -10.336,-7.63 z m 20.105,15.56 c 3.205,2.74 6.355,5.56 9.448,8.46 l 2.055,-2.18 c -3.129,-2.94 -6.315,-5.79 -9.556,-8.56 z m 18.483,17.39 c 2.926,3.04 5.792,6.17 8.594,9.39 l 2.263,-1.97 c -2.836,-3.26 -5.736,-6.42 -8.696,-9.5 z m 16.666,19.15 c 2.605,3.31 5.147,6.72 7.622,10.21 l 2.449,-1.73 c -2.504,-3.54 -5.076,-6.98 -7.712,-10.34 z m 14.681,20.73 c 2.251,3.54 4.439,7.16 6.558,10.88 l 2.607,-1.49 c -2.144,-3.76 -4.357,-7.42 -6.634,-11 z m 12.6,22.08 c 1.894,3.72 3.723,7.52 5.486,11.41 l 2.732,-1.24 c -1.781,-3.93 -3.63,-7.77 -5.544,-11.53 z m 10.509,23.18 c 1.545,3.86 3.028,7.79 4.447,11.81 l 2.828,-1 c -1.432,-4.06 -2.93,-8.03 -4.491,-11.92 z m 8.479,24 c 1.219,3.96 2.379,7.99 3.477,12.09 l 2.898,-0.77 c -1.108,-4.14 -2.278,-8.21 -3.509,-12.2 z m 6.571,24.58 c 0.922,4.03 1.788,8.13 2.594,12.31 l 2.946,-0.57 c -0.813,-4.21 -1.685,-8.34 -2.615,-12.41 z m 4.823,24.95 c 0.654,4.1 1.255,8.27 1.8,12.51 l 2.975,-0.39 c -0.548,-4.26 -1.153,-8.46 -1.813,-12.59 z m 3.243,25.19 c 0.415,4.18 0.778,8.42 1.087,12.72 l 2.992,-0.22 c -0.311,-4.32 -0.676,-8.59 -1.093,-12.8 z m 1.831,25.35 c 0.198,4.26 0.344,8.59 0.438,12.97 l 3,-0.06 c -0.095,-4.41 -0.242,-8.76 -0.441,-13.05 z m 0.566,25.47 c -0.004,4.22 -0.054,8.49 -0.152,12.81 l 2.999,0.07 c 0.099,-4.35 0.149,-8.64 0.153,-12.88 z m -0.574,25.6 c -0.179,4.15 -0.401,8.35 -0.666,12.59 l 2.995,0.19 c 0.265,-4.26 0.488,-8.48 0.668,-12.65 z m -1.59,25.47 c -0.337,4.17 -0.715,8.38 -1.134,12.63 l 2.986,0.3 c 0.42,-4.27 0.799,-8.5 1.138,-12.68 z m -2.477,25.22 c -0.488,4.24 -1.015,8.52 -1.582,12.85 l 2.975,0.39 c 0.569,-4.34 1.098,-8.64 1.587,-12.9 z m -3.321,25.39 c -0.603,4.13 -1.242,8.3 -1.918,12.5 l 2.962,0.48 c 0.678,-4.22 1.319,-8.4 1.924,-12.54 z m -4.053,25.24 c -0.374,2.15 -0.757,4.3 -1.149,6.46 l 2.951,0.54 c 0.394,-2.17 0.779,-4.33 1.154,-6.48 z m -1.154,6.49 c -0.324,2.01 -0.722,4.12 -1.197,6.31 l 2.932,0.64 c 0.486,-2.25 0.894,-4.41 1.226,-6.47 z m -4.475,18.83 c -1.19,3.92 -2.585,8.03 -4.197,12.3 l 2.807,1.06 c 1.634,-4.33 3.05,-8.5 4.261,-12.48 z m -9.124,24.32 c -1.689,3.81 -3.538,7.73 -5.554,11.73 l 2.679,1.35 c 2.039,-4.04 3.909,-8.01 5.618,-11.87 z m -11.689,23.22 c -2.073,3.68 -4.283,7.41 -6.635,11.18 l 2.547,1.59 c 2.375,-3.81 4.607,-7.58 6.701,-11.29 z m -13.74,22.07 c -2.397,3.51 -4.917,7.05 -7.563,10.61 l 2.408,1.79 c 2.67,-3.59 5.213,-7.16 7.633,-10.71 z m -15.546,20.93 c -2.668,3.31 -5.448,6.64 -8.341,9.96 l 2.264,1.97 c 2.918,-3.35 5.722,-6.71 8.414,-10.05 z m -17.055,19.62 c -2.918,3.12 -5.938,6.24 -9.063,9.35 l 2.116,2.12 c 3.15,-3.13 6.195,-6.27 9.137,-9.42 z m -18.453,18.37 c -3.136,2.91 -6.367,5.81 -9.696,8.69 l 1.964,2.27 c 3.355,-2.91 6.612,-5.83 9.773,-8.76 z m -19.681,17.06 c -3.328,2.69 -6.746,5.37 -10.254,8.03 l 1.811,2.39 c 3.534,-2.68 6.978,-5.38 10.332,-8.09 z m -20.764,15.73 c -3.499,2.48 -7.081,4.94 -10.748,7.37 l 1.659,2.5 c 3.693,-2.45 7.3,-4.92 10.825,-7.42 z m -21.722,14.42 c -3.65,2.27 -7.379,4.51 -11.187,6.72 l 1.507,2.59 c 3.834,-2.22 7.588,-4.48 11.263,-6.76 z m -22.544,13.1 c -3.765,2.05 -7.603,4.07 -11.514,6.06 l 1.359,2.67 c 3.936,-2 7.799,-4.03 11.588,-6.09 z m -23.201,11.8 c -3.881,1.84 -7.832,3.65 -11.852,5.43 l 1.216,2.75 c 4.043,-1.79 8.017,-3.62 11.923,-5.47 z m -23.863,10.57 c -3.974,1.64 -8.013,3.25 -12.117,4.83 l 1.076,2.8 c 4.127,-1.59 8.189,-3.2 12.186,-4.85 z m -24.31,9.35 c -2.055,0.73 -4.126,1.46 -6.212,2.17 l 0.975,2.84 c 2.098,-0.72 4.179,-1.45 6.245,-2.19 z m -6.212,2.17 c -2.073,0.72 -4.133,1.45 -6.182,2.19 l 1.026,2.82 c 2.032,-0.74 4.076,-1.46 6.131,-2.17 z m -18.331,6.86 c -4.055,1.64 -8.059,3.35 -12.013,5.12 l 1.226,2.74 c 3.921,-1.76 7.892,-3.45 11.913,-5.08 z m -23.78,10.64 c -3.925,1.93 -7.796,3.93 -11.613,5.98 l 1.422,2.65 c 3.785,-2.04 7.624,-4.02 11.515,-5.93 z m -22.97,12.37 c -3.76,2.2 -7.463,4.47 -11.11,6.79 l 1.612,2.53 c 3.616,-2.3 7.288,-4.55 11.016,-6.73 z m -21.986,14.01 c -3.583,2.48 -7.106,5.01 -10.569,7.6 l 1.795,2.4 c 3.434,-2.56 6.927,-5.07 10.48,-7.53 z m -20.875,15.6 c -3.394,2.74 -6.726,5.53 -9.993,8.38 l 1.97,2.26 c 3.239,-2.82 6.542,-5.59 9.907,-8.3 z m -19.645,17.1 c -3.185,2.99 -6.302,6.03 -9.352,9.12 l 2.134,2.11 c 3.023,-3.06 6.114,-6.08 9.271,-9.04 z m -18.335,18.56 c -2.942,3.21 -5.814,6.47 -8.615,9.77 l 2.287,1.94 c 2.777,-3.27 5.623,-6.5 8.54,-9.68 z m -16.87,19.88 c -2.691,3.43 -5.308,6.9 -7.85,10.41 l 2.429,1.76 c 2.52,-3.48 5.113,-6.92 7.78,-10.31 z m -15.294,21.1 c -2.423,3.63 -4.769,7.3 -7.035,10.99 l 2.557,1.57 c 2.247,-3.66 4.571,-7.3 6.973,-10.89 z m -13.626,22.24 c -2.13,3.8 -4.178,7.63 -6.144,11.49 l 2.674,1.36 c 1.947,-3.82 3.977,-7.62 6.087,-11.39 z m -11.832,23.24 c -1.819,3.96 -3.554,7.95 -5.201,11.95 l 2.775,1.14 c 1.632,-3.96 3.35,-7.91 5.152,-11.84 z m -9.908,24.11 c -1.492,4.1 -2.894,8.22 -4.204,12.36 l 2.86,0.91 c 1.297,-4.1 2.686,-8.18 4.163,-12.25 z m -7.876,24.87 c -1.137,4.21 -2.179,8.43 -3.127,12.65 l 2.928,0.66 c 0.937,-4.18 1.969,-8.36 3.095,-12.52 z m -5.699,25.46 c -0.763,4.29 -1.427,8.59 -1.991,12.9 l 2.975,0.39 c 0.558,-4.26 1.215,-8.52 1.97,-12.76 z m -3.385,25.86 c -0.366,4.35 -0.628,8.69 -0.785,13.03 l 2.998,0.11 c 0.156,-4.29 0.415,-8.59 0.776,-12.89 z m -0.94,26.09 c 0.054,4.36 0.217,8.7 0.488,13.04 l 2.994,-0.19 c -0.268,-4.28 -0.428,-8.58 -0.483,-12.89 z m 1.633,26.04 c 0.494,4.33 1.098,8.65 1.816,12.94 l 2.959,-0.5 c -0.709,-4.24 -1.307,-8.5 -1.794,-12.78 z m 4.309,25.75 c 0.944,4.25 2.003,8.48 3.177,12.67 l 2.889,-0.81 c -1.159,-4.14 -2.205,-8.31 -3.138,-12.51 z m 7.041,25.15 c 1.399,4.11 2.913,8.19 4.544,12.24 l 2.783,-1.13 c -1.611,-3.99 -3.106,-8.02 -4.487,-12.08 z m 9.768,24.21 c 1.848,3.93 3.812,7.82 5.893,11.67 l 2.639,-1.42 c -2.054,-3.8 -3.993,-7.64 -5.817,-11.53 z m 12.414,22.97 c 2.27,3.68 4.654,7.33 7.152,10.92 l 2.463,-1.71 c -2.466,-3.55 -4.819,-7.14 -7.06,-10.79 z m 14.922,21.46 c 2.654,3.4 5.417,6.75 8.291,10.05 l 2.262,-1.97 c -2.839,-3.26 -5.568,-6.57 -8.188,-9.92 z m 17.124,19.65 c 3.017,3.11 6.141,6.16 9.371,9.16 l 2.041,-2.19 c -3.192,-2.97 -6.278,-5.99 -9.259,-9.06 z m 19.118,17.77 c 1.676,1.4 3.377,2.8 5.104,4.17 l 1.871,-2.34 c -1.708,-1.36 -3.39,-2.74 -5.047,-4.13 z m 5.21,4.25 c 1.65,1.1 3.443,2.23 5.364,3.39 l 1.551,-2.57 c -1.891,-1.14 -3.647,-2.25 -5.256,-3.32 z m 16.396,9.64 c 3.519,1.89 7.275,3.83 11.215,5.8 l 1.341,-2.68 c -3.918,-1.96 -7.647,-3.89 -11.135,-5.76 z m 22.574,11.32 c 3.725,1.76 7.555,3.54 11.455,5.3 l 1.238,-2.73 c -3.886,-1.76 -7.701,-3.53 -11.409,-5.28 z m 22.988,10.43 c 3.844,1.67 7.72,3.33 11.596,4.96 l 1.164,-2.76 c -3.865,-1.63 -7.729,-3.28 -11.561,-4.95 z m 23.254,9.78 c 3.95,1.61 7.867,3.17 11.717,4.68 l 1.093,-2.8 c -3.837,-1.5 -7.742,-3.06 -11.681,-4.66 z m 23.502,9.2 c 4.097,1.53 8.066,2.98 11.857,4.33 l 1.005,-2.82 c -3.774,-1.35 -7.726,-2.79 -11.808,-4.32 z m 23.811,8.43 c 2.095,0.68 4.1,1.32 6.004,1.9 l 0.881,-2.86 c -1.884,-0.58 -3.871,-1.21 -5.951,-1.9 z m 6.004,1.9 c 2.054,0.64 4.169,1.28 6.339,1.93 l 0.868,-2.87 c -2.169,-0.65 -4.279,-1.29 -6.326,-1.92 z m 19.012,5.8 c 4.081,1.26 8.292,2.61 12.601,4.05 l 0.955,-2.84 c -4.336,-1.46 -8.57,-2.81 -12.666,-4.08 z m 25.073,8.46 c 4.042,1.51 8.138,3.13 12.263,4.87 l 1.166,-2.77 c -4.168,-1.76 -8.303,-3.39 -12.38,-4.91 z m 24.286,10.28 c 3.908,1.89 7.822,3.9 11.72,6.05 l 1.452,-2.62 c -3.951,-2.19 -7.915,-4.22 -11.871,-6.13 z m 23.043,12.78 c 3.655,2.33 7.278,4.8 10.852,7.44 l 1.78,-2.42 c -3.631,-2.67 -7.31,-5.19 -11.019,-7.55 z m 21.16,15.63 c 3.283,2.81 6.507,5.77 9.656,8.91 l 2.116,-2.13 c -3.204,-3.19 -6.483,-6.21 -9.821,-9.06 z m 18.619,18.54 c 2.81,3.26 5.542,6.68 8.184,10.28 l 2.417,-1.78 c -2.688,-3.66 -5.468,-7.14 -8.328,-10.46 z m 15.562,21.15 c 2.282,3.65 4.475,7.45 6.572,11.42 l 2.652,-1.4 c -2.13,-4.03 -4.36,-7.9 -6.68,-11.61 z m 12.305,23.26 c 1.736,3.91 3.382,7.97 4.932,12.18 l 2.815,-1.04 c -1.572,-4.26 -3.242,-8.38 -5.004,-12.36 z m 9.104,24.67 c 1.239,4.11 2.392,8.34 3.452,12.72 l 2.915,-0.71 c -1.073,-4.43 -2.24,-8.72 -3.495,-12.88 z m 6.23,25.61 c 0.8,4.22 1.52,8.55 2.153,13.01 l 2.97,-0.42 c -0.64,-4.5 -1.366,-8.88 -2.175,-13.15 z m 3.73,26.11 c 0.218,2.2 0.417,4.42 0.595,6.66 l 2.991,-0.23 c -0.18,-2.27 -0.38,-4.51 -0.6,-6.72 z m 0.595,6.67 c 0.161,1.93 0.323,3.98 0.482,6.13 l 2.992,-0.22 c -0.16,-2.16 -0.322,-4.22 -0.484,-6.16 z m 1.304,18.46 c 0.234,3.93 0.455,8.07 0.654,12.35 l 2.996,-0.14 c -0.199,-4.29 -0.42,-8.44 -0.655,-12.39 z m 1.147,24.69 c 0.136,4.05 0.247,8.19 0.329,12.36 l 2.999,-0.06 c -0.082,-4.19 -0.194,-8.33 -0.33,-12.4 z m 0.477,24.71 c 0.017,4.13 -10e-4,8.26 -0.058,12.35 l 2.999,0.04 c 0.058,-4.11 0.076,-8.26 0.059,-12.4 z m -0.366,24.69 c -0.153,4.2 -0.358,8.32 -0.621,12.31 l 2.994,0.2 c 0.264,-4.03 0.471,-8.17 0.625,-12.4 z m -1.665,24.59 c -0.463,4.32 -1.015,8.4 -1.667,12.17 l 2.956,0.51 c 0.665,-3.84 1.226,-7.99 1.694,-12.36 z m -4.39,24.02 c -0.643,2.09 -1.338,3.97 -2.086,5.6 l 2.729,1.25 c 0.813,-1.78 1.553,-3.78 2.225,-5.97 z"
    />
</svg>



